<svg width="34" height="12" viewBox="0 0 34 12" fill="none" xmlns="http://www.w3.org/2000/svg">
<path d="M17.0222 1.12124L14.8479 11.2848H12.2188L14.3934 1.12124H17.0222ZM28.0838 7.68387L29.468 3.86711L30.2645 7.68387H28.0838ZM31.0172 11.2848H33.4492L31.327 1.12124H29.0823C28.5779 1.12124 28.1523 1.41461 27.9629 1.86689L24.0184 11.2848H26.7794L27.3276 9.76709H30.7007L31.0172 11.2848ZM24.1554 7.96631C24.1667 5.2838 20.4458 5.13615 20.4715 3.93789C20.4793 3.57278 20.827 3.18547 21.5865 3.08607C21.9638 3.03685 23.0013 2.99922 24.1793 3.54125L24.6405 1.38598C24.0078 1.1563 23.1936 0.935303 22.181 0.935303C19.5824 0.935303 17.7533 2.31693 17.7379 4.29527C17.7215 5.75828 19.0436 6.57471 20.0399 7.0611C21.0641 7.55938 21.4083 7.87849 21.4038 8.32402C21.397 9.00631 20.5867 9.30676 19.8308 9.31866C18.5086 9.33957 17.7414 8.96192 17.1299 8.67691L16.6535 10.9039C17.2676 11.186 18.4015 11.4312 19.5779 11.4437C22.3396 11.4437 24.1464 10.0791 24.1554 7.96631ZM13.2652 1.12124L9.00552 11.2848H6.22587L4.12979 3.17357C4.0024 2.674 3.89174 2.49128 3.50476 2.28058C2.8733 1.93799 1.82944 1.61598 0.911041 1.41654L0.973769 1.12124H5.4474C6.01742 1.12124 6.5305 1.50082 6.65982 2.15737L7.76705 8.03901L10.5029 1.12124H13.2652Z" fill="#1434CB"/>
</svg>
